<?xml version="1.0" encoding="utf-8"?>
<!-- Generator: Adobe Illustrator 15.0.0, SVG Export Plug-In . SVG Version: 6.00 Build 0) -->
<!DOCTYPE svg PUBLIC "-//W3C//DTD SVG 1.1//EN" "http://www.w3.org/Graphics/SVG/1.1/DTD/svg11.dtd">
<!-- <svg version="1.1" id="Layer_1" xmlns="http://www.w3.org/2000/svg" xmlns:xlink="http://www.w3.org/1999/xlink" x="0px" y="0px" width="1920px" height="304px" viewBox="0 0 1920 304" enable-background="new 0 0 1920 304" xml:space="preserve">
	<path fill="#f6f6f6" d="M0,274c0,0,195.28-174,579.28-124s580.147-76.408,736-108C1463.28,12,1920,0,1920,0v304H0V274z" />
</svg> -->

<!--  -->


<svg width="394" height="86" viewBox="0 0 394 86" fill="none" xmlns="http://www.w3.org/2000/svg">
<path d="M1 77.6118C1 77.6118 40.8697 28.9605 119.27 42.9408C197.67 56.9211 237.716 21.5767 269.536 12.7434C299.753 4.35526 393 1 393 1V86H1V77.6118Z" fill="#F6F6F6"/>
<path d="M1 77.6118C1 77.6118 40.8697 28.9605 119.27 42.9408" stroke="#DEDEDE"/>
<path d="M119.27 42.9408C197.67 56.9211 237.716 21.5767 269.536 12.7434" stroke="#DEDEDE"/>
<path d="M269.536 12.7434C299.753 4.35526 393 1 393 1" stroke="#DEDEDE"/>
</svg>
